PathFileType	4	(X/Y/Z)	C:/Users/beibeiliu/ov580/test_trc/User3\sequence.36_training_dense_left.trc
DataRate	CameraRate	NumFrames	NumMarkers	Units	OrigDataRate	OrigDataStartFrame	OrigNumFrames
120	120	17	19	mm	120	32	252
Frame#	Time	ThumbCMC			ThumbMCP			ThumbIP			ThumbTip			IndexMCP			IndexPIP			IndexTip			MiddleMCP			MiddlePIP			MiddleTip			RingMCP			RingPIP			RingTip			PinkyMCP			PinkyPIP			PinkyTip			BackHand1			BackHand2			BackHand3	
		X0	Y0	Z0	X1	Y1	Z1	X2	Y2	Z2	X3	Y3	Z3	X4	Y4	Z4	X5	Y5	Z5	X6	Y6	Z6	X7	Y7	Z7	X8	Y8	Z8	X9	Y9	Z9	X10	Y10	Z10	X11	Y11	Z11	X12	Y12	Z12	X13	Y13	Z13	X14	Y14	Z14	X15	Y15	Z15	X16	Y16	Z16	X17	Y17	Z17	X18	Y18	Z18	
31	0.258333	-213.243	-34.6267	17.152	-205.447	-8.02557	-5.97647	-186.655	4.91778	-20.4476	-163.12	16.6513	-30.636	-165.585	-45.3112	-45.9798	-154.896	-26.4578	-64.5109	-139.504	1.48093	-65.9828	-141.65	-54.4784	-36.8485	-122.895	-32.1002	-49.9256	-111.714	2.53504	-43.6801	-128.404	-47.1077	-8.67344	-120.605	-18.9581	-5.9259	-140.954	-4.48843	18.5455	-123.98	-47.2799	14.4908	-128.707	-18.9764	24.5502	-152.614	-21.7199	38.5378	-165.396	-82.5741	19.6491	-185.834	-82.4988	46.1682	-200.827	-68.4764	11.8327	
32	0.266667	-213.288	-31.412	16.4459	-204.79	-7.35994	-3.4798	-187.113	10.2186	-21.7797	-162.083	15.3914	-28.9256	-173.357	-44.6069	-43.666	-155.512	-26.3712	-65.2069	-138.922	-0.85272	-66.3794	-145.674	-56.2886	-34.7544	-125.406	-36.2808	-52.2509	-113.636	-1.14674	-46.0328	-132.946	-47.8958	-13.3911	-120.082	-20.6567	-8.20855	-137.62	-5.08371	16.1218	-124.382	-47.429	12.0427	-130.233	-20.6474	18.1207	-155.336	-23.3337	36.7102	-167.159	-82.3074	18.0255	-187.954	-81.386	45.2631	-199.28	-68.3847	16.111	
33	0.275	-216.981	-25.4763	17.1508	-203.836	-1.66526	-3.5562	-183.121	14.1169	-23.4708	-162.662	18.9404	-28.7952	-173.675	-42.6423	-44.3474	-158.067	-25.4503	-66.4142	-141.577	0.809858	-67.3596	-151.045	-53.4247	-40.4848	-130.767	-36.1037	-55.5097	-115.894	-4.33207	-50.4294	-135.731	-45.7495	-17.3105	-122.64	-21.1844	-11.1643	-138.173	-5.19347	15.9043	-125.616	-45.6935	6.30891	-130.856	-21.8772	16.1326	-150.461	-21.3236	38.3445	-174.297	-79.0463	13.814	-189.143	-80.4916	39.9149	-203.829	-66.1433	13.0448	
34	0.283333	-215.606	-20.8083	20.1676	-204.077	5.38244	0.767892	-185.283	18.5051	-17.6147	-161.199	22.016	-28.1181	-180.789	-36.2798	-44.7789	-161.018	-17.6072	-67.9648	-145.399	2.03556	-69.2392	-156.709	-50.0084	-44.2552	-133.977	-31.5647	-58.6286	-116.794	0.875476	-50.2495	-138.276	-46.3446	-18.9052	-125.418	-16.3755	-14.4545	-137.868	-3.50672	14.791	-131.205	-49.4276	4.6651	-130.534	-20.2284	14.7109	-152.071	-19.693	35.1866	-178.47	-75.3077	12.2637	-193.296	-77.2582	42.7063	-206.021	-60.8048	13.6242	
35	0.291667	-217.577	-12.4407	23.7915	-202.302	10.2701	0.761061	-184.725	22.727	-15.2445	-160.998	27.0931	-25.83	-185.963	-28.8444	-46.5138	-168.775	-8.27989	-69.2354	-150.335	9.26477	-69.2946	-158.97	-46.2608	-44.4897	-140.483	-25.2306	-60.7855	-121.188	4.74379	-53.5696	-141.359	-42.1876	-20.5108	-126.225	-13.3849	-14.6143	-137.029	-0.475052	11.3649	-131.92	-42.226	-0.408756	-131.661	-17.1103	13.7276	-148.409	-17.6275	35.5566	-179.982	-72.3046	10.0526	-194.779	-74.4992	40.3062	-209.669	-52.5119	15.9527	
36	0.3	-218.655	-6.38814	24.6492	-202.466	15.4018	3.59022	-185.22	29.2284	-12.6889	-161.935	37.6964	-26.9123	-185.264	-24.1387	-45.4512	-171.515	-8.7956	-66.9509	-149.502	12.5588	-68.7683	-165.996	-40.178	-43.5724	-147.007	-22.0098	-62.0549	-121.464	3.70402	-53.2509	-146.183	-39.5509	-20.6285	-128.393	-14.5942	-18.069	-139.731	3.27947	12.781	-136.671	-38.5366	-1.58171	-133.554	-15.7597	10.5067	-151.243	-14.4658	35.9347	-183.071	-67.7334	13.3	-198.119	-69.3758	38.2854	-212.104	-46.6583	15.7655	
37	0.308333	-217.927	-2.4301	23.4003	-203.194	21.1076	3.22974	-186.399	35.6662	-10.6856	-163.287	43.4952	-24.367	-185.899	-17.4803	-48.9591	-171.343	-0.324714	-68.3201	-151.867	22.0682	-67.8056	-167.082	-36.5973	-41.5685	-145.566	-18.9839	-60.7615	-122.037	6.50298	-51.5855	-146.968	-36.5092	-20.7391	-129.866	-7.45086	-16.8186	-138.046	4.78565	15.4103	-138.717	-41.4866	-0.143195	-131.334	-14.963	11.2917	-150.465	-6.67396	30.1318	-190.233	-60.2172	12.4216	-199.667	-66.8957	39.6932	-217.06	-39.5319	12.0045	
38	0.316667	-219.403	-0.945218	23.4101	-206.525	27.3169	5.76437	-187.442	42.0457	-11.9299	-164.477	44.3711	-19.4994	-190.053	-13.5442	-45.1602	-174.358	7.13539	-67.7245	-150.389	24.6229	-66.5581	-171.431	-30.1126	-43.597	-145.379	-15.0053	-60.3363	-120.053	11.9916	-49.0144	-149.904	-30.5812	-23.044	-129.976	-7.07321	-17.2585	-137.563	8.11416	11.4129	-140.579	-35.6014	-0.823648	-131.864	-12.7594	11.4423	-154.828	-4.80721	34.4316	-189.285	-58.3246	12.5321	-205.792	-59.9353	36.2992	-220.627	-36.6437	11.4049	
39	0.325	-220.904	-0.0317569	23.1074	-206.609	23.9085	7.95789	-186.012	42.1739	-12.7186	-159.905	44.7739	-23.2432	-187.921	-10.3326	-49.2426	-174.835	5.90033	-66.476	-150.094	28.798	-64.1955	-167.256	-31.2941	-44.9747	-144.157	-12.97	-59.4822	-122.289	9.65725	-49.9378	-152.133	-29.8183	-22.2515	-130.741	-6.83658	-14.7435	-138.879	8.34376	15.4775	-139.943	-34.7818	-0.268661	-134.246	-11.1976	11.6171	-156.938	-4.494	31.6179	-194.679	-56.6266	9.43676	-206.388	-60.1007	36.7566	-223.309	-33.9161	12.541	
40	0.333333	-224.925	5.24964	20.5005	-207.404	25.6805	4.1645	-188.046	41.7983	-13.5462	-162.686	45.5337	-23.0486	-188.04	-11.6906	-49.5397	-172.618	7.56082	-65.9844	-149.35	25.2298	-63.2075	-169.157	-30.5984	-44.2812	-146.631	-14.3956	-59.4824	-124.912	14.8594	-49.3666	-150.875	-31.8739	-20.715	-131.421	-7.91222	-15.4829	-143.013	9.27851	14.1839	-145.025	-37.4274	-0.588775	-134.345	-13.5183	12.091	-156.439	-1.78253	29.5865	-191.929	-58.6755	8.18782	-209.917	-59.8325	36.0308	-223.383	-36.5413	11.5308	
41	0.341667	-227.55	3.73711	20.0061	-209.885	23.9935	7.06356	-187.516	42.0571	-15.0854	-163.207	40.7241	-22.9309	-191.326	-11.6064	-46.7912	-174.717	4.10313	-66.0164	-150.297	22.4251	-63.1901	-169.484	-31.796	-44.8718	-147.071	-14.5818	-59.8007	-122.106	9.76419	-47.001	-151.898	-34.4076	-19.8661	-134.126	-8.32551	-15.9894	-144.2	8.39606	11.6146	-142.443	-38.7585	1.651	-136.672	-13.1497	12.4579	-159.236	-4.21909	33.9356	-195.689	-57.6485	8.96357	-213.086	-57.9261	34.8784	-226.582	-34.7731	11.8905	
42	0.35	-225.123	0.588876	18.6418	-212.111	25.0854	3.31913	-186.92	35.1382	-14.7403	-165.548	37.8721	-21.1834	-194.037	-13.132	-47.2901	-172.354	4.29077	-66.5148	-149.272	25.3422	-62.483	-169.35	-32.7548	-45.2191	-145.542	-17.3945	-58.3145	-124.012	13.5448	-46.1594	-153.048	-35.4408	-18.8228	-132.284	-11.6151	-11.283	-144.879	6.2824	12.8587	-143.938	-39.766	2.85303	-138.424	-13.5432	12.342	-159.916	-3.85184	30.9872	-198.283	-59.2849	11.2942	-213.397	-60.4466	37.2979	-226.355	-37.5501	12.3833	
43	0.358333	-228.088	-0.710421	19.6547	-210.577	19.3934	3.43545	-191.784	34.5493	-12.4716	-164.11	37.239	-23.6037	-190.541	-18.3038	-47.8376	-177.605	0.670342	-67.0776	-153.875	19.6731	-65.9594	-171.879	-36.7698	-41.2365	-148.047	-16.4077	-59.9661	-126.415	7.86203	-46.9971	-153.181	-35.3211	-21.3052	-134.337	-14.6403	-15.817	-143.581	3.03243	14.0825	-146.441	-38.9821	0.0155704	-138.917	-15.8148	11.7953	-158.095	-5.0848	29.9139	-198.55	-60.3866	8.66454	-212.558	-64.9504	38.8212	-228.687	-38.5137	12.6726	
44	0.366667	-227.039	-5.82973	23.0679	-211.975	20.6378	3.84082	-190.527	35.2671	-17.3396	-166.954	33.4512	-23.2821	-194.274	-18.4903	-46.0175	-177.626	-3.47422	-66.502	-152.316	17.9624	-64.7585	-176.091	-36.9888	-41.4077	-151.268	-23.0935	-58.2873	-127.769	6.78378	-48.217	-152.822	-38.2247	-21.3064	-134.8	-17.454	-16.9637	-143.244	0.976246	13.0084	-149.309	-44.6001	1.79763	-139.887	-16.7214	13.1048	-162.945	-6.16469	29.3679	-199.305	-62.3842	11.6533	-215.63	-63.0771	36.6393	-228.786	-40.6122	9.4025	
45	0.375	-226.699	-5.19732	21.3814	-209.902	18.0526	2.53632	-191.346	30.5518	-12.2282	-170.413	35.1942	-22.1375	-195.271	-19.969	-46.9172	-177.415	-2.18197	-66.564	-154.825	17.1856	-64.6827	-174.676	-38.4144	-44.092	-147.553	-23.3015	-57.6871	-127.906	3.18811	-48.9576	-158.269	-39.2465	-22.5416	-136.9	-18.528	-17.6376	-145.875	0.346432	13.5931	-146.203	-43.4322	0.664879	-138.856	-20.4275	13.0156	-157.976	-8.07244	29.7705	-197.809	-66.6736	13.8003	-217.562	-66.1338	38.6823	-228.661	-42.4952	13.1169	
46	0.383333	-227.743	-6.21209	18.1162	-212.871	18.1651	2.76605	-192.794	29.4828	-14.2201	-166.927	29.1024	-23.8309	-196.588	-22.1479	-46.3331	-178.998	-7.44861	-66.6512	-153.658	12.3491	-64.4946	-176.632	-39.7831	-44.9102	-149.714	-22.6558	-60.1692	-128.548	1.27549	-48.6801	-155.085	-44.3953	-19.0794	-137.073	-17.8557	-17.0576	-143.597	-2.6793	13.0617	-145.709	-44.3671	0.688241	-139.401	-22.4661	8.83767	-158.307	-11.2793	29.038	-199.619	-65.7875	10.5451	-215.218	-67.5473	40.1605	-228.748	-43.234	12.4194	
47	0.391667	-228.749	-5.97829	19.8087	-210.691	12.9878	3.18197	-192.996	31.1074	-18.0172	-169.35	33.2513	-25.9589	-195.579	-22.7726	-49.2623	-181.03	-6.85279	-66.1423	-156.813	15.0957	-65.4581	-177.57	-42.8019	-41.8774	-150.579	-27.8738	-59.0561	-129.521	1.68036	-49.0626	-153.701	-42.0687	-20.8704	-138.114	-18.8296	-16.0856	-146.176	-2.49443	14.092	-149.763	-46.9172	0.923214	-141.007	-22.0285	11.8194	-162.712	-12.5421	30.4604	-199.565	-66.3384	14.4928	-216.231	-68.1644	35.9908	-229.845	-45.2841	11.9127	
